<svg width="552" height="268" viewBox="0 0 552 268" fill="none" xmlns="http://www.w3.org/2000/svg">
<path d="M25.28 1.96V44.152L59.264 1.96H86.768L54.512 40.552L88.496 97H60.416L36.8 56.248L25.28 70.216V97H0.512001V1.96H25.28ZM125.124 1.96V97H100.356V1.96H125.124ZM186.52 1.96C201.4 1.96 212.776 6.088 220.648 14.344C228.616 22.6 232.6 34.312 232.6 49.48C232.6 64.648 228.616 76.36 220.648 84.616C212.776 92.872 201.4 97 186.52 97H146.2V1.96H186.52ZM184.072 78.28C192.136 78.28 197.992 75.88 201.64 71.08C205.384 66.184 207.256 58.984 207.256 49.48C207.256 39.976 205.384 32.824 201.64 28.024C197.992 23.128 192.136 20.68 184.072 20.68H170.968V78.28H184.072ZM285.867 0.519998C294.699 0.519998 302.475 1.912 309.195 4.696C316.011 7.384 321.915 11.368 326.907 16.648L314.955 32.632C310.827 28.312 306.363 25.096 301.563 22.984C296.859 20.776 291.483 19.672 285.435 19.672C280.155 19.672 276.363 20.536 274.059 22.264C271.755 23.992 270.603 26.104 270.603 28.6C270.603 30.616 271.515 32.344 273.339 33.784C275.259 35.128 278.331 36.28 282.555 37.24L298.539 40.84C308.043 43.048 315.003 46.264 319.419 50.488C323.835 54.712 326.043 60.328 326.043 67.336C326.043 74.056 324.315 79.768 320.859 84.472C317.403 89.08 312.651 92.584 306.603 94.984C300.555 97.288 293.643 98.44 285.867 98.44C276.267 98.44 267.483 96.904 259.515 93.832C251.547 90.664 245.211 86.536 240.507 81.448L252.459 64.888C256.011 69.016 260.811 72.472 266.859 75.256C272.907 77.944 279.147 79.288 285.579 79.288C295.563 79.288 300.555 76.36 300.555 70.504C300.555 68.488 299.787 66.808 298.251 65.464C296.811 64.024 294.123 62.824 290.187 61.864L272.619 57.976C267.243 56.824 262.443 55.192 258.219 53.08C254.091 50.968 250.827 48.184 248.427 44.728C246.027 41.176 244.827 36.76 244.827 31.48C244.827 25.528 246.459 20.248 249.723 15.64C252.987 10.936 257.691 7.24 263.835 4.552C269.979 1.864 277.323 0.519998 285.867 0.519998ZM40.832 170.96C55.712 170.96 67.088 175.088 74.96 183.344C82.928 191.6 86.912 203.312 86.912 218.48C86.912 233.648 82.928 245.36 74.96 253.616C67.088 261.872 55.712 266 40.832 266H0.512001V170.96H40.832ZM38.384 247.28C46.448 247.28 52.304 244.88 55.952 240.08C59.696 235.184 61.568 227.984 61.568 218.48C61.568 208.976 59.696 201.824 55.952 197.024C52.304 192.128 46.448 189.68 38.384 189.68H25.28V247.28H38.384ZM128.639 170.96V266H103.871V170.96H128.639ZM189.027 267.44C180.579 267.44 173.043 265.568 166.419 261.824C159.891 258.08 154.803 252.56 151.155 245.264C147.507 237.968 145.683 229.088 145.683 218.624C145.683 208.448 147.603 199.712 151.443 192.416C155.283 185.024 160.755 179.36 167.859 175.424C175.059 171.488 183.507 169.52 193.203 169.52C204.051 169.52 212.739 171.488 219.267 175.424C225.891 179.264 231.027 185.408 234.675 193.856L211.779 202.928C210.531 198.032 208.323 194.48 205.155 192.272C201.987 190.064 198.051 188.96 193.347 188.96C186.243 188.96 180.723 191.504 176.787 196.592C172.947 201.584 171.027 208.88 171.027 218.48C171.027 228.656 172.995 236.24 176.931 241.232C180.867 246.128 186.771 248.576 194.643 248.576C200.115 248.576 204.675 247.28 208.323 244.688C211.971 242.096 213.795 238.112 213.795 232.736V231.296H192.051V214.736H234.819V266H217.971L216.963 254.336C214.275 258.56 210.579 261.824 205.875 264.128C201.267 266.336 195.651 267.44 189.027 267.44ZM278.546 170.96V266H253.778V170.96H278.546ZM379.541 170.96V190.112H348.581V266H323.813V190.112H292.709V170.96H379.541ZM371.81 266L405.218 170.96H434.882L468.146 266H442.658L436.178 244.544H403.346L396.722 266H371.81ZM415.73 204.8L408.53 227.696H430.994L424.082 204.944L419.906 189.968H419.618L415.73 204.8ZM503.968 246.848H551.632V266H479.2V170.96H503.968V246.848Z" fill="white"/>
</svg>
