<svg width="192" height="50" viewBox="0 0 192 50" fill="none" xmlns="http://www.w3.org/2000/svg">
<path d="M12.64 39.424H36.472V49H0.256V1.48H12.64V39.424ZM63.3336 0.759999C68.1336 0.759999 72.2616 1.744 75.7176 3.712C79.2216 5.632 81.9096 8.416 83.7816 12.064C85.6536 15.712 86.5896 20.104 86.5896 25.24C86.5896 30.376 85.6536 34.768 83.7816 38.416C81.9096 42.064 79.2216 44.872 75.7176 46.84C72.2616 48.76 68.1336 49.72 63.3336 49.72C58.4856 49.72 54.3096 48.76 50.8056 46.84C47.3496 44.872 44.6856 42.064 42.8136 38.416C40.9416 34.768 40.0056 30.376 40.0056 25.24C40.0056 20.104 40.9416 15.712 42.8136 12.064C44.6856 8.416 47.3496 5.632 50.8056 3.712C54.3096 1.744 58.4856 0.759999 63.3336 0.759999ZM63.3336 10.48C59.8776 10.48 57.2376 11.728 55.4136 14.224C53.5896 16.672 52.6776 20.344 52.6776 25.24C52.6776 30.136 53.5896 33.832 55.4136 36.328C57.2376 38.776 59.8776 40 63.3336 40C66.7416 40 69.3576 38.776 71.1816 36.328C73.0056 33.832 73.9176 30.136 73.9176 25.24C73.9176 20.344 73.0056 16.672 71.1816 14.224C69.3576 11.728 66.7416 10.48 63.3336 10.48ZM114.764 49.72C110.54 49.72 106.772 48.784 103.46 46.912C100.196 45.04 97.6516 42.28 95.8276 38.632C94.0036 34.984 93.0916 30.544 93.0916 25.312C93.0916 20.224 94.0516 15.856 95.9716 12.208C97.8916 8.512 100.628 5.68 104.18 3.712C107.78 1.744 112.004 0.759999 116.852 0.759999C122.276 0.759999 126.62 1.744 129.884 3.712C133.196 5.632 135.764 8.704 137.588 12.928L126.14 17.464C125.516 15.016 124.412 13.24 122.828 12.136C121.244 11.032 119.276 10.48 116.924 10.48C113.372 10.48 110.612 11.752 108.644 14.296C106.724 16.792 105.764 20.44 105.764 25.24C105.764 30.328 106.748 34.12 108.716 36.616C110.684 39.064 113.636 40.288 117.572 40.288C120.308 40.288 122.588 39.64 124.412 38.344C126.236 37.048 127.148 35.056 127.148 32.368V31.648H116.276V23.368H137.66V49H129.236L128.732 43.168C127.388 45.28 125.54 46.912 123.188 48.064C120.884 49.168 118.076 49.72 114.764 49.72ZM168.451 0.759999C173.251 0.759999 177.379 1.744 180.835 3.712C184.339 5.632 187.027 8.416 188.899 12.064C190.771 15.712 191.707 20.104 191.707 25.24C191.707 30.376 190.771 34.768 188.899 38.416C187.027 42.064 184.339 44.872 180.835 46.84C177.379 48.76 173.251 49.72 168.451 49.72C163.603 49.72 159.427 48.76 155.923 46.84C152.467 44.872 149.803 42.064 147.931 38.416C146.059 34.768 145.123 30.376 145.123 25.24C145.123 20.104 146.059 15.712 147.931 12.064C149.803 8.416 152.467 5.632 155.923 3.712C159.427 1.744 163.603 0.759999 168.451 0.759999ZM168.451 10.48C164.995 10.48 162.355 11.728 160.531 14.224C158.707 16.672 157.795 20.344 157.795 25.24C157.795 30.136 158.707 33.832 160.531 36.328C162.355 38.776 164.995 40 168.451 40C171.859 40 174.475 38.776 176.299 36.328C178.123 33.832 179.035 30.136 179.035 25.24C179.035 20.344 178.123 16.672 176.299 14.224C174.475 11.728 171.859 10.48 168.451 10.48Z" fill="white"/>
</svg>
